<svg xmlns="http://www.w3.org/2000/svg" x="0px" y="0px"
width="50" height="50"
viewBox="0 0 171 171"
style=" fill:#000000;"><g fill="none" fill-rule="nonzero" stroke="none" stroke-width="1" stroke-linecap="butt" stroke-linejoin="miter" stroke-miterlimit="10" stroke-dasharray="" stroke-dashoffset="0" font-family="none" font-weight="none" font-size="none" text-anchor="none" style="mix-blend-mode: normal"><path d="M0,171.98863v-171.98863h171.98863v171.98863z" fill="none"></path><g fill="#2287bf"><path d="M71.82,10.26c-32.14265,0 -58.14,25.99735 -58.14,58.14c0,32.14266 25.99735,58.14 58.14,58.14c11.4757,0 22.09641,-3.36656 31.10063,-9.08437l42.00187,42.00188l14.535,-14.535l-41.4675,-41.36062c7.45453,-9.77906 11.97,-21.89602 11.97,-35.16187c0,-32.14265 -25.99734,-58.14 -58.14,-58.14zM71.82,23.94c24.62133,0 44.46,19.83867 44.46,44.46c0,24.62133 -19.83867,44.46 -44.46,44.46c-24.62133,0 -44.46,-19.83867 -44.46,-44.46c0,-24.62133 19.83867,-44.46 44.46,-44.46z"></path></g></g></svg>